<svg id="visual" class="bg-prop" viewBox="0 0 900 600" width="900" height="600" xmlns="http://www.w3.org/2000/svg" xmlns:xlink="http://www.w3.org/1999/xlink" version="1.1"><g transform="translate(455.88350057647494 310.3828488802822)"><path d="M137.2 -196.2C194.1 -177 267.6 -166.4 289.9 -129C312.2 -91.7 283.3 -27.5 255.4 23.5C227.5 74.6 200.7 112.6 167.1 136.5C133.5 160.4 93.2 170.1 51.7 187.7C10.1 205.3 -32.5 230.8 -86.8 240.2C-141.1 249.6 -207 243 -252 208.6C-297 174.2 -321.2 111.9 -304.1 59.6C-287 7.2 -228.6 -35.2 -199.7 -88.2C-170.9 -141.2 -171.7 -204.8 -143.3 -237C-115 -269.2 -57.5 -270.1 -8.7 -256.7C40.2 -243.2 80.4 -215.4 137.2 -196.2" fill="#D6D5CB"></path></g></svg>