<svg id="visual" viewBox="0 0 960 540" width="960" height="540" xmlns="http://www.w3.org/2000/svg" xmlns:xlink="http://www.w3.org/1999/xlink" version="1.1"><rect x="0" y="0" width="960" height="540" fill="#ffffff"></rect><defs><linearGradient id="grad1_0" x1="43.8%" y1="0%" x2="100%" y2="100%"><stop offset="14.444444444444446%" stop-color="#00bdfe" stop-opacity="1"></stop><stop offset="85.55555555555554%" stop-color="#00bdfe" stop-opacity="1"></stop></linearGradient></defs><defs><linearGradient id="grad1_1" x1="43.8%" y1="0%" x2="100%" y2="100%"><stop offset="14.444444444444446%" stop-color="#00bdfe" stop-opacity="1"></stop><stop offset="85.55555555555554%" stop-color="#abdeff" stop-opacity="1"></stop></linearGradient></defs><defs><linearGradient id="grad1_2" x1="43.8%" y1="0%" x2="100%" y2="100%"><stop offset="14.444444444444446%" stop-color="#ffffff" stop-opacity="1"></stop><stop offset="85.55555555555554%" stop-color="#abdeff" stop-opacity="1"></stop></linearGradient></defs><defs><linearGradient id="grad2_0" x1="0%" y1="0%" x2="56.3%" y2="100%"><stop offset="14.444444444444446%" stop-color="#00bdfe" stop-opacity="1"></stop><stop offset="85.55555555555554%" stop-color="#00bdfe" stop-opacity="1"></stop></linearGradient></defs><defs><linearGradient id="grad2_1" x1="0%" y1="0%" x2="56.3%" y2="100%"><stop offset="14.444444444444446%" stop-color="#abdeff" stop-opacity="1"></stop><stop offset="85.55555555555554%" stop-color="#00bdfe" stop-opacity="1"></stop></linearGradient></defs><defs><linearGradient id="grad2_2" x1="0%" y1="0%" x2="56.3%" y2="100%"><stop offset="14.444444444444446%" stop-color="#abdeff" stop-opacity="1"></stop><stop offset="85.55555555555554%" stop-color="#ffffff" stop-opacity="1"></stop></linearGradient></defs><g transform="translate(960, 0)"><path d="M0 297C-51.7 289.1 -103.5 281.2 -148.5 257.2C-193.5 233.2 -231.8 193.1 -255.5 147.5C-279.1 101.9 -288.1 51 -297 0L0 0Z" fill="#d7eeff"></path><path d="M0 198C-34.5 192.7 -69 187.5 -99 171.5C-129 155.5 -154.6 128.7 -170.3 98.3C-186.1 68 -192 34 -198 0L0 0Z" fill="#77cdff"></path><path d="M0 99C-17.2 96.4 -34.5 93.7 -49.5 85.7C-64.5 77.7 -77.3 64.4 -85.2 49.2C-93 34 -96 17 -99 0L0 0Z" fill="#00bdfe"></path></g><g transform="translate(0, 540)"><path d="M0 -297C46.4 -280.2 92.9 -263.4 139 -240.8C185.1 -218.1 230.9 -189.6 257.2 -148.5C283.5 -107.4 290.2 -53.7 297 0L0 0Z" fill="#d7eeff"></path><path d="M0 -198C31 -186.8 61.9 -175.6 92.7 -160.5C123.4 -145.4 154 -126.4 171.5 -99C189 -71.6 193.5 -35.8 198 0L0 0Z" fill="#77cdff"></path><path d="M0 -99C15.5 -93.4 31 -87.8 46.3 -80.3C61.7 -72.7 77 -63.2 85.7 -49.5C94.5 -35.8 96.7 -17.9 99 0L0 0Z" fill="#00bdfe"></path></g></svg>