<svg id="visual" viewBox="0 0 960 540" width="960" height="540" xmlns="http://www.w3.org/2000/svg" xmlns:xlink="http://www.w3.org/1999/xlink" version="1.1"><path d="M0 410L17.8 421.2C35.7 432.3 71.3 454.7 106.8 463.8C142.3 473 177.7 469 213.2 460.3C248.7 451.7 284.3 438.3 320 428.8C355.7 419.3 391.3 413.7 426.8 418C462.3 422.3 497.7 436.7 533.2 448.5C568.7 460.3 604.3 469.7 640 465.2C675.7 460.7 711.3 442.3 746.8 437.3C782.3 432.3 817.7 440.7 853.2 449.2C888.7 457.7 924.3 466.3 942.2 470.7L960 475L960 541L942.2 541C924.3 541 888.7 541 853.2 541C817.7 541 782.3 541 746.8 541C711.3 541 675.7 541 640 541C604.3 541 568.7 541 533.2 541C497.7 541 462.3 541 426.8 541C391.3 541 355.7 541 320 541C284.3 541 248.7 541 213.2 541C177.7 541 142.3 541 106.8 541C71.3 541 35.7 541 17.8 541L0 541Z" fill="#00bdfe"></path><path d="M0 483L17.8 477.7C35.7 472.3 71.3 461.7 106.8 461.7C142.3 461.7 177.7 472.3 213.2 469.5C248.7 466.7 284.3 450.3 320 450C355.7 449.7 391.3 465.3 426.8 466.7C462.3 468 497.7 455 533.2 454.8C568.7 454.7 604.3 467.3 640 473.2C675.7 479 711.3 478 746.8 477.3C782.3 476.7 817.7 476.3 853.2 476.5C888.7 476.7 924.3 477.3 942.2 477.7L960 478L960 541L942.2 541C924.3 541 888.7 541 853.2 541C817.7 541 782.3 541 746.8 541C711.3 541 675.7 541 640 541C604.3 541 568.7 541 533.2 541C497.7 541 462.3 541 426.8 541C391.3 541 355.7 541 320 541C284.3 541 248.7 541 213.2 541C177.7 541 142.3 541 106.8 541C71.3 541 35.7 541 17.8 541L0 541Z" fill="#35ceff"></path><path d="M0 486L17.8 490.5C35.7 495 71.3 504 106.8 509.5C142.3 515 177.7 517 213.2 516.2C248.7 515.3 284.3 511.7 320 504.7C355.7 497.7 391.3 487.3 426.8 482.7C462.3 478 497.7 479 533.2 478.7C568.7 478.3 604.3 476.7 640 484.2C675.7 491.7 711.3 508.3 746.8 515.8C782.3 523.3 817.7 521.7 853.2 519.2C888.7 516.7 924.3 513.3 942.2 511.7L960 510L960 541L942.2 541C924.3 541 888.7 541 853.2 541C817.7 541 782.3 541 746.8 541C711.3 541 675.7 541 640 541C604.3 541 568.7 541 533.2 541C497.7 541 462.3 541 426.8 541C391.3 541 355.7 541 320 541C284.3 541 248.7 541 213.2 541C177.7 541 142.3 541 106.8 541C71.3 541 35.7 541 17.8 541L0 541Z" fill="#5adeff"></path></svg>